<svg width="1128" height="431" viewBox="0 0 1128 431" fill="none" xmlns="http://www.w3.org/2000/svg">
<path d="M341.393 237.291C323.583 220.669 299.669 210.019 269.652 205.241V200.463C293.666 194.889 312.076 184.737 324.884 170.006C337.691 155.274 344.094 136.064 344.094 112.375C344.094 88.6856 337.991 68.7786 325.584 51.8577C313.277 35.0363 295.667 22.1963 272.954 13.3377C250.141 4.37953 223.126 0 191.908 0H0V429.991H214.721C245.939 429.991 273.054 425.014 296.067 415.06C319.08 405.107 336.89 390.973 349.297 372.46C361.704 353.946 368.108 332.546 368.108 307.762C368.108 282.978 359.203 253.814 341.393 237.192V237.291ZM90.9514 72.2623H191.908C204.315 72.2623 214.821 74.4521 223.326 78.6326C231.831 82.9126 238.235 88.8847 242.537 96.5488C246.839 104.213 248.941 113.171 248.941 123.224C248.941 133.277 246.839 142.534 242.537 150.198C238.235 157.862 231.831 163.834 223.326 168.114C214.821 172.394 204.415 174.485 191.908 174.485H90.9514V72.0633V72.2623ZM266.35 331.551C261.948 339.812 255.444 346.282 246.739 350.86C238.034 355.439 227.328 357.728 214.821 357.728H91.0514V246.946H214.821C227.428 246.946 238.034 249.235 246.739 253.814C255.444 258.393 261.948 264.862 266.35 273.223C270.753 281.584 272.954 291.339 272.954 302.487C272.954 313.634 270.753 323.389 266.35 331.551Z" fill="white"/>
<path d="M534.202 0H441.75V429.991H534.202V0Z" fill="white"/>
<path d="M947.335 0L890.903 60.9154L785.344 0H619.25L607.843 30.7563L778.44 176.575H825.766L896.706 99.933L977.552 146.615L914.216 215.095L977.552 283.575L896.706 330.257L825.766 253.615H778.44L607.843 399.434L619.25 430.19H785.344L890.903 369.274L947.335 430.19H1113.43L1120.33 414.563L1127.04 399.434L1026.58 290.94L1127.04 232.912V197.378L1026.58 139.349L1127.04 30.8558L1113.43 0H947.335ZM960.843 30.7563H1084.91L999.064 123.423L918.219 76.7414L960.843 30.7563ZM802.353 156.469L655.17 30.6567H777.039L869.391 84.0074L802.353 156.469ZM956.24 214.995L1004.97 162.341L1096.12 214.995L1004.97 267.649L956.24 214.995ZM777.039 399.234H655.17L802.353 273.422L869.391 345.884L777.039 399.234ZM918.219 353.249L999.064 306.567L1084.91 399.234H960.843L918.219 353.249Z" fill="white"/>
</svg>
