<svg width="1111" height="926" viewBox="0 0 1111 926" fill="none" xmlns="http://www.w3.org/2000/svg">
<path d="M362.623 67.9956L1108.12 500.738V424.673L380.34 2.20996H26.4495L2.07227 67.9956H362.623Z" stroke="white" stroke-width="4.42" stroke-linejoin="bevel"/>
<path d="M744.53 462.71L1108.13 67.9956L1079.29 2.20996L655.08 462.71L1079.29 923.21L1108.13 857.424L744.53 462.71Z" stroke="white" stroke-width="4.42" stroke-linejoin="bevel"/>
<path d="M380.34 923.208L1108.12 500.745V424.681L362.623 857.423H2.07227L26.4495 923.208H380.34Z" stroke="white" stroke-width="4.42" stroke-linejoin="bevel"/>
<path d="M754.246 67.9957H1108.12L1079.28 2.20996H725.401L377.111 380.295H466.552L754.246 67.9957Z" stroke="white" stroke-width="4.42" stroke-linejoin="bevel"/>
<path d="M725.401 923.21H1079.28L1108.12 857.424H754.246L466.552 545.125H377.111L725.401 923.21Z" stroke="white" stroke-width="4.42" stroke-linejoin="bevel"/>
<path d="M365.602 545.125L2.07227 857.424L26.4495 923.21L466.556 545.125H365.602Z" stroke="white" stroke-width="4.42" stroke-linejoin="bevel"/>
<path d="M466.556 380.295L26.4495 2.20996L2.07227 67.9957L365.602 380.295H466.556Z" stroke="white" stroke-width="4.42" stroke-linejoin="bevel"/>
<path d="M380.34 2.20996L362.623 67.9957" stroke="white" stroke-width="4.42" stroke-miterlimit="10"/>
<path d="M725.404 2.20996L754.249 67.9957" stroke="white" stroke-width="4.42" stroke-miterlimit="10"/>
<path d="M655.08 462.711H744.53" stroke="white" stroke-width="4.42" stroke-miterlimit="10"/>
<path d="M725.404 923.209L754.249 857.423" stroke="white" stroke-width="4.42" stroke-miterlimit="10"/>
<path d="M380.34 923.209L362.623 857.423" stroke="white" stroke-width="4.42" stroke-miterlimit="10"/>
</svg>
